#!OML:ASF F:\VICON\USERDATA\INSTALL\rory3\rory3.ASF
:FULLY-SPECIFIED
:DEGREES
778
root -2.67824 29.6759 -10.6802 180.312 190.281 -178.398
lowerback 7.9047 2.35169 -0.650428
upperback 1.46694 3.03185 -1.1055
thorax -2.88251 1.508 -1.08595
lowerneck -7.53362 1.47895 -7.75014
upperneck 32.1863 2.37423 4.27492
head 11.5549 0.65068 3.22939
rclavicle -7.7526e-015 1.0635e-014
rhumerus -29.7287 5.55807 -81.872
rradius 35.6875
rwrist 17.0243
rhand -21.7938 0.945074
rfingers 7.12502
rthumb 4.60788 -28.9848
lclavicle -7.7526e-015 1.0635e-014
lhumerus -38.6697 36.3364 62.1113
lradius 16.1498
lwrist -1.14087
lhand -21.5845 27.9187
lfingers 7.12502
lthumb 4.80994 57.8441
rfemur -7.89917 11.0337 23.1315
rtibia 30.7854
rfoot -24.8882 -20.569
rtoes 5.0971
lfemur -16.8586 5.87033 -22.5158
ltibia 33.6207
lfoot -17.9517 14.7062
ltoes 10.4762
779
root -2.66454 29.672 -10.6594 180.3 190.263 -178.437
lowerback 7.90682 2.43954 -0.626954
upperback 1.44845 3.14903 -1.14845
thorax -2.89766 1.56591 -1.15591
lowerneck -7.3355 1.44248 -7.61217
upperneck 32.1219 2.27519 4.28636
head 11.4966 0.62568 3.19271
rclavicle -2.2823e-014 6.85807e-015
rhumerus -29.7843 5.60641 -82.0649
rradius 35.8481
rwrist 17.3279
rhand -21.5928 0.727543
rfingers 7.12502
rthumb 4.80192 -29.198
lclavicle -2.2823e-014 6.85807e-015
lhumerus -38.7209 35.7674 62.3436
lradius 16.4679
lwrist -0.438769
lhand -22.4708 29.7823
lfingers 7.12502
lthumb 3.95418 59.7253
rfemur -7.82238 11.0626 23.1368
rtibia 30.8329
rfoot -25.0062 -20.6028
rtoes 4.83241
lfemur -16.7972 6.02398 -22.5049
ltibia 33.6317
lfoot -17.9054 14.4465
ltoes 10.5003
780
root -2.64892 29.6681 -10.6386 180.302 190.188 -178.395
lowerback 7.91544 2.47501 -0.670204
upperback 1.38849 3.19035 -1.19541
thorax -2.96358 1.58647 -1.1867
lowerneck -7.05698 1.45088 -7.49357
upperneck 32.0017 2.2543 4.24321
head 11.3957 0.628086 3.14411
rclavicle -1.05977e-014 7.15625e-015
rhumerus -29.9315 5.6193 -82.2225
rradius 36.1021
rwrist 17.6797
rhand -21.1156 0.537519
rfingers 7.12502
rthumb 5.26276 -29.3771
lclavicle -1.05977e-014 7.15625e-015
lhumerus -38.9843 35.5363 62.305
lradius 16.724
lwrist 0.0443101
lhand -22.9673 30.6922
lfingers 7.12502
lthumb 3.47466 60.6436
rfemur -7.76785 10.9868 23.0347
rtibia 30.8558
rfoot -25.0919 -20.6103
rtoes 4.68407
lfemur -16.7803 6.19722 -22.5913
ltibia 33.6647
lfoot -17.9352 14.1381
ltoes 10.6871
781
root -2.63053 29.6647 -10.6179 180.431 190.167 -178.527
lowerback 7.79927 2.49142 -0.545014
upperback 1.36557 3.22522 -1.16877
thorax -2.91681 1.60309 -1.22759
lowerneck -6.98114 1.47134 -7.48277
upperneck 31.8909 2.29292 4.188
head 11.3354 0.643526 3.1207
rclavicle -1.42876e-015 6.75868e-015
rhumerus -29.8842 5.72344 -82.3078
rradius 36.2376
rwrist 17.8371
rhand -21.0082 0.753534
rfingers 7.12502
rthumb 5.36641 -29.1585
lclavicle -1.42876e-015 6.75868e-015
lhumerus -39.1761 35.6201 62.2318
lradius 16.8604
lwrist 0.294092
lhand -22.2167 28.5187
lfingers 7.12502
lthumb 4.19955 58.4571
rfemur -7.83529 10.9793 23.0923
rtibia 30.871
rfoot -25.1872 -20.5752
rtoes 4.80132
lfemur -16.8802 6.39494 -22.5038
ltibia 33.7086
lfoot -17.954 13.8931
ltoes 10.8426
782
root -2.61223 29.6614 -10.5956 180.566 190.227 -178.616
lowerback 7.63337 2.54481 -0.494344
upperback 1.39407 3.30311 -1.1667
thorax -2.79115 1.64209 -1.25215
lowerneck -7.07024 1.44306 -7.38651
upperneck 31.8125 2.28349 4.05193
head 11.3278 0.637144 3.05164
rclavicle 1.79776e-014 2.78299e-015
rhumerus -29.7121 5.9798 -82.4447
rradius 36.3749
rwrist 17.6717
rhand -21.131 0.757444
rfingers 7.12502
rthumb 5.24785 -29.1576
lclavicle 1.79776e-014 2.78299e-015
lhumerus -39.1588 35.4516 62.4261
lradius 17.0206
lwrist 0.700658
lhand -21.4291 26.407
lfingers 7.12502
lthumb 4.96 56.3289
rfemur -7.91783 11.051 23.0946
rtibia 30.8847
rfoot -25.2682 -20.5352
rtoes 4.73697
lfemur -16.978 6.67555 -22.4851
ltibia 33.7638
lfoot -17.934 13.6728
ltoes 10.7249
